<mxfile host="app.diagrams.net" agent="Mozilla/5.0 (X11; Linux x86_64; rv:128.0) Gecko/20100101 Firefox/128.0" border="50" scale="3" compressed="false" locked="false" version="26.1.1">
  <diagram name="Blank" id="YmL12bMKpDGza6XwsDPr">
    <mxGraphModel dx="3274" dy="510" grid="0" gridSize="10" guides="1" tooltips="1" connect="1" arrows="1" fold="1" page="0" pageScale="1" pageWidth="827" pageHeight="1169" background="none" math="1" shadow="0">
      <root>
        <mxCell id="X5NqExCQtvZxIxQ7pmgY-0" />
        <mxCell id="1" parent="X5NqExCQtvZxIxQ7pmgY-0" />
        <mxCell id="3PC0X6na9no3xxSYQHZZ-24" value="" style="shape=image;verticalLabelPosition=bottom;labelBackgroundColor=default;verticalAlign=top;aspect=fixed;imageAspect=0;image=data:image/png,iVBORw0KGgoAAAANSUhEUgAAAPoAAACWCAYAAAD32pUcAAAABHNCSVQICAgIfAhkiAAAAF96VFh0UmF3IHByb2ZpbGUgdHlwZSBBUFAxAAAImeNKT81LLcpMVigoyk/LzEnlUgADYxMuE0sTS6NEAwMDCwMIMDQwMDYEkkZAtjlUKNEABZiYm6UBoblZspkpiM8FAE+6FWgbLdiMAAAgAElEQVR4nO2deZQc1X3vv/feql6nZ+tZtIxWtCBWC4EAG5sEC55xCItt2eYQiBeefJ7zYhy/FyQ7rMbByM8+dhJIAvES28TmIS/YBMe2BIYHBmFJGBDapVk1mn1632q774/q0vT0dPd091R3j9T3c04d0EzVreo5/a3f7/5+v/u7hN35awgEgrMbWusHEAgElUcIXSCoA4TQBYI6QAhdIKgDhNAFgjpACF0gqAOE0AWCOkAIXSCoA4TQBYI6QAhdIKgDhNAFgjpACF0gqAOE0AWCOkAIXSCoA4TQBYI6QAhdIKgDhNAFgjpACF0gqAOE0AWCOkAIXSCoA4TQBYI6QAhdIKgDhNAFgjpACF0gqAOE0AWCOkAIXSCoA4TQBYI6QAhdIKgDhNAFgjpACF0gqAOE0AWCOkAIXSCoA4TQBYI6QLJ7wGNfu8bW8RglCIcVvDiqk9+Na5v9MrmrO6w16Bwgtt5pjhCAc8AwOADA45ZwyQpvUHXJD55rKC9cKBvobJKgG/bedvXdL9g7oOCsxHahM2qv/JwSQTihtzx9MPIfPbLjemYYcNh8j7nCOYehc1CJwuuT0ex3gTU58SYjoBp+0zOhP7e0HXcuZWQ8BV7rxxXUIbYL/eRY0raxCAGcMqXbdo794OXexPVrLmkDkxg4nx9iMQwOzgGXi6Gx2YmmNhfcHsm07oZp4RmFdCSq3/StSYXe56Q3Kfp8eXpBPWG70Bvc9gzJweFzUnz3tcmbXz4euwEyQWg0Af/iBnDdlluU91xp95xRgoZGB5rbXGhockCWafp3M69pdlDsGdT+/NmB1I13rHb/Iq4JqQuqi+1Cp8SeLzGjBJGk0fDjdyJfgUQASjAxFkdjmxuSXH2rbugcHIDTxdDY4kST3wWXRwJJW289z8uHA6ZLzwheGNUevmkZf97FEBVaF1QT+4NxQ/a47i5G8OTb4bu6x1Pr4DCTA1rKwORIDAuWNkHXK68UzjkMA2CMoKHZgWa/C74mJySZwOBp97yIcQgBZAoMRPXzHjuU+OsbF8pfVYQDfzaxE8Cm9P9fC2BXDZ8lJ7YL/cLl3jmP4ZIp3hlILPnpgfDnIWdkABlBcCKB1g4PJIdUMatuzb1PW+9WF9zeqbl3PuudEw5QSgACeCjBi6Pq5z6ywvnkZX55IHnmmvWt6f8+kuf3OwDsA9Cd/n9BjbFd6N1DiTldTwD4XAz/snviwZTG2+Ag036pqxzjwzEsXN5k61zdst6UEfiaHGjyu9DQ5IQsk7xz72JhzHxZEQIYBl+wozd1X7tM/ntE48W5BPODlTAFvqWIczenD4tLYQpfUCNsF/pkvHz1EQAOiWLn4eB7fnk4+peWyz4NShCcTKG1Q4PTLZ3OW5eLkZ4COEqce5dExrvKwwheHlFua2f49ga/9Lpic169QmwB8Pgcrt8AIfSaYrvQ13V5yr6WEAIKTh94Yewr4JzmLIkhANd0jI/EsGhFU1n3OT33pgQNTem5d3Ppc+9ioZRM+yQccO8L61+5bbXrAzqHPsd3VaV5HDOt+K708QSAQNbvNsCcr27AdKsuqCG2C/2N45GyruMAGhwUrwwkbn97OPkn0+bm2TCK0GQSvg4vGj3FW/XsuXdjeu5Niema22K9c0DSc3QLFyU4GtE3ff9E6i8+tszxfcXmF4uNZIt8H4DPoLB13pf1+635ThRUD9uF3ul3lXWdgxGcmkw1/OCt8L1gRZTg6xyh4Sgaz2kueNrpuXc6793kd8HXPD3vXcm0PIc5N89UOgfgJgQvjqp/94k17l8uddGAOv+i8Nnz8R0APlrGONvteRzBXLBd6E2u0tfJcA40uxn+7/7QtlBcPwfOIsZgBNFAEomoAleDAzwr3WYYHOAcslM6HTn3NEjpgFjlrPcMuGnRKSXgxlSBvkyB8aSx+vEj8S98crnz3rDK0y+EecFKTI+olytywTzBdqF7ixFpFm6Z4tUT0dU/3Bv4fM4AXB44B8ZPRbFkdSs4rKo1A5QSs+a8zQ1fkwOyI3/VWjUgSEfcMWXXOQAvI/jVoPK5y1ul723skLuTNaz4yyIz8NYN010XnMHYvkzVKZGSDpdE4JYJfnIw8lBK5d6SlqRRgkhIQSycAgBIMkHbAg9WnNuC5ee2oLXdBSZR6HrtRA6kg3E5/tLpyH7jb0e0hxyMwMEAucSjAqzEVPEHYLre2QE3O9gJ833Hs+63NePnHDMDelvS55zIOo+nx5wtJpDvvlZmIXvMx3M8Q7FszbofBzCZ/nlLmWOWhe0W/fDJeEnnOyWCvadS1/7Xkejmolz2GRBMDkdwyfuWoqXTDSYRcKPyc+9SIJSAEILpNt3EIxG8MqJ8/AfH6HcvbqTPz4N0W+a8PAAzsl4NVsIUxcqsn1uC2ABg7yxjbEofm2FONbqLvO/T6fFzsSV97ILp2RQz5qb0mLnE3AJzWrQVZhVdVdKOtgv9/GUNRZ/LGEE8qUuffW7ky7wc74JQIBmGkkwiMN4OyWlG0+fRXPc0pMBDyZTQ/xxUHti00Ptyg0yUKlT3FiLTylVL5IBpObNFnkmmELdhZtXdJpgC2pA+noZZqFMIS+Qt6bGewPTy1a2Ysr6bYL6ILkVhD2cDpuIb2zA9Bbk5Pd6G9Jg7AZwzy3i2YLvQB8eLr3X3uRieORD+ZN+kekUpc3PT5wVoLAhEAoDXjWRCw8CJEHxNTnR0eeHxSjDSS0VrCU+XwFKKdAh+5jkyAcZTxlW/G1Vvv2GR4zsxtaYPnSmoYqyXHViWeB/MqYIl4GyXeRvyR/F3wbSQJ2CKaANMS1zoZWXFIj6T5zzrWSxPwwpSFopZPAJTuLms9Y70c+5Nj9UCU/jbCoxnC7YL/VRILe7GjODtgUTbo7sDD0AqwQQTAhg6aHgSRImDEwrOOQghIIwiEkwhFlHQ2ulG+0IvmERg1NiHJ8S06Hl0DgBwUIKf9qa2dTLyswUeGtBq48JnW9RqCX1L+l7XYrp1y7TYxXgXAZjitCzqpiKu2z7LOVYwcmfGs25H4b9NoVoD6xmtl8wWnIlCv2Bpca67z0nxpeeG7g7FtEVwFRlVIhRETYFEJkA0xXTd+VS9OIFZq845MDYYQySooHOxF40tTjMSUvv5b15kAkym+KrXQ/rdW7scX4wovBZFNNlzymLnoztnPatw568WmHNqO1zYTNd7U96zTCzRFTPmrozxColzH2ZfyLMDU0JvgfmCrehL1Xahv91TuDKOw1yCOhTVL/rl4chn4SxW5AQkGQWNBEzFWmFsAuicQzEMuDIWjzCJIpXQ0H8shCa/Cx2LvXC5WU3ceULMF1AhOACvTPDSiHrXpU30hxf75YNK9WtjqxoJzsASkh1kCma2z5OrhDcfmUIv9AIpZrVeAOYLwZomnXlC984iXEoBRTHwL3sCDyZU7p3Vbbfm49EgSDw8lZTOHJNzSDlEQdO95YITScRCCvwLPfB3ukFZ9d15Qsmsda4EgKFz929HtS/fsNL9EZ1X/aWU/aWvlvDtXL9dildQirgynzFfhL6UMSsegMvE/lZSs6TIGpwUL/clbj4yod4MuQiRZ8zHcyaji4AxAt3gGB6IIDSZROeSBjQ2OU4vYKkGLKvePR8uieCNSe3DPz6euPFKv/TLWHXXrGd/+VZi9vTPLuT+ZMW69ED51mwLpr+MSs1Pl3LfXC/BXGKtqoCLxXah+7z5h5QlgpGg6v7mqxMPzZpMIxRQU6DhcRBdKyhyzjm4YZhftzy6IMRcF56Ma+g7EkRLmxsdi72QnbTy1p0AVJrdols4CMFTvcr9l7TKv1nUwFJq9Vz4bphfVEsshdJddlKsOKwVcfNhoUw+oc9LbBe6vyH/kE0uhmf2h7eMBNULCgbgCDXn49GAWflSIAdNAHCDw9CtYpTCorDc+cmxBKKhFNoXedHS7j5dA18JSPq+xcrVQYGxpHHJa5Palk+e4/qnKjeY24WptNZmzJ9FKVsxs6NNN6ZHzHekf1aNP9gZI3KgAkJ/pz+W+0aUIJDQF//T65P3wJFH5MQUKo1MgiQiOefjeSlxMssYgaYZGOyNIDSZQmeXF16fXJFgnTlc8SlEDsArETzVnbxngUR+1ipjsIpa34cpoW9AFQJFRZAt8kL59EqRPSWob6F3dbhn/IwQwMkoHn1m8IvhmN6WsziGUBBdBYkESpyPm1ukcF761i2EEDAGxMIKeg4r8Hd60LbQA0m2352fLeqeDSNAVOUdzw0pdz9wkecutXpr1p/AdFE9gtqvXMt01fMVt1SazADcGdctx/ZFLbG4OuPQFR17e6MbX+pLbMnZUIJQQEmABkZAlERpQTdizdF52Vs0UUZAQDA2FEf3wQCC40lQamYI7KLUslwOs+3UwZC+5WBYX88IoBp8xlEBsuvbs/u/VRurXNRiNpGXElcoFD0vdO686/I6G7YLfTCgTjuGgiqODiXx9VcmHlYMLk9To1kyBhIPg4XGAEMvXRGAadFPz9HLhJjuvJrScfJEGH3HQkjGNTBW3iNlDZ1+mZR4HQF0Dtf3jiXvPxbUMBIzMJR1VIhtmO6aPo3Zi08qRabIiy3gKZZiz23B9JfdGSd0+9s9Zy1qaXBRPLUn8KFDw8n3TyuOIabLTaOB9Hyclq8oDttaP5N0f7dIIIVYWIF/gQdtCzxzLqUtJRiXiYsCh8P6Db1JfvMtSxzPRFSjGrtLBmC665npsZ0w58UVL9csQDGps1Ii8tZKt9mKXDLTdnYW91QN2y36gb7o6ePwQBR7j0V8394b+HtIGbciFNA10ODolMjnAue2B9CsUtrRwRi6DwYQDqRAWXmParaTKt2iW9e6JcJ29KceOTCpeGKqgVBq6qgg1rLMTKy14luR2523Fmk8jeJz6LOROR+2xs9HrmWus/E4Crvw1vp3i1q+6MrGdqFLjEBiBDIjcDCCf98X/KvegHIurGAUoSDWfFxNzl3kML95hm6/pSNpdz6VNEtpB46FoST1stx5OocpgESA0bixdndA/58XtDuwqlU+fVSYJzBzoQlgBuiexswmDZPp32W/BOYSvMquR38kfWRa9y0wV4RtQmkbRuxLj7MXM4ttNsB8CWR225mtMea8xXah+70Mfi/DwkYJOiHnvDKY+N+mNZ+aj9PQKIih2yJywPqWVS4mTdM934KTSfQcCmBsKJ5eflr8A9IiK+Py4ZEInj2pbPv9kLJsOKyhP2geVWAXzDXT5aSzrK6xs60Ln41tmC7grTBfKpldYDag9N52mWm6R7LG3IupJhzWVKYW0X5bsL+VlJPB7ZZAGMXXX564P5oy/KBmzyQamTSLYNKitwvCOSJVqF1njEDXDQz1R9FzOIBYRCnauhNidZkp894EiGu85fFjyXtBzM48jlKW986NAExRkPR/C7mv1u9bYQrcLnF8FPnFth2m51FOGnAbzOfM9Zl2YeqznNFbS1WkMs7joHitJ/6ePwwmb4WDmfPx8DiImrLNimfCQeCuUtG6lXtPxFT0Hgmhpc2F9sVeOBy08I6qdG6inEq3abf1Jfl3r2yTXo3XphXN9qz/lsu1ZVyzI33M1qyy1D+21Yu+3M9Uzmcp55qyqUhlnEQIe+jFie2cUImkEqCRyXTqzH6RAzBTY1VejmYJd2I0jkhQQUeXF81+V+5SWm71jUsvoplLFpAT1z8fSjxMV/H3G7yWO8ULziRsV97lqxvxysnUxw8Opd5DlAhoeLz8/HgJGDVqtMYYhabpGOwOo+9oEPFY7ty7XR/fxYCjYf3q3QHto5cucNozqOCsx3ah944rrTsOhB5CfBI0Omn+sArdGs1FLbWBEALKCKJhBT2HAxjqj8LQOVhG2QBl5HQ7qblg9YN/cVT9+8G43jrH4QR1gu1C//rzQ/9roGdwBdPKXz9eKuZrpPZbGlFKQDgwdiqG7kMBBCdSoDTjz2DT+06mwEjcWPGdI4nP2jOi4GzHdiXuOdR/JwylKlY8E0ObJ9NVq41VUsPA8RD6j4eQSuiQZArGyOlGkXM5QAjcEsWBiP4/av1xBWcGtgfjJuJqB5OqY8kzqaXrngsrWBeeTCER09Da4YamGFBTWskvwXS1MLL2akRQwSL7nlhwNmO70Ivo/VA/EALZxZAMJ/DGH44hyd3gsqP4Be9WMWEuoXOgxJWvgjrG/jy6Sx4djmkdjFZX7UaNGqHngzKz3/xE9xDGj5+CpuhAu9fMvdnxpzE4/B42OmHDUIKzH9t97Kv8kX9FLAxO7XcWCmHUchfFDAghoLKEcDCG/tcPY/idPhiqBiZn5NyIDYfOccVi17er+uHODq7F1F/xjFuFVi62C/2vrj/3W6u03h4SHEqLvUr+ZcZGDrWCSgycc4wdGcCp1w8hPhkGk5nZ6tlOdI6uZkfv567yf8PegQVnK7YLvaO9OXD9Zcvvl/rfgnfiOACAVzrNRgDdqMnOJubtKQGVGWJjIfS9egBjRwbMtfZWIt1cp2rfDVWOm9Z672trdEzaN2jRbMb0FWtbCp8+gy1Z1+c7rO2FZ2sOkTmeXUtjzzpsV+CbB/tw1cXLf3TR6kUvYeQEGoffBlMTFXblCbjBbWs+UQpUYtAUDSf392Jgz2EkIwkwWZqxgKX8RldZaBxrO52vXdnleuqtWXbFqRDZS1Ar1WbK2l54J8yVZKW0fRJkYbvQ169fh8s3XqB/4RMf+DuDSBqLT6Lx1JtwRkcq6spTboBUcZ5OKAVlFOFTE+h/7SDCPUMgxPxZngtsseoE0B64tuNv37uuUd24unHO45VIdkslwLS4le7/bu2NXqt2Vmc8tgs9FI5hZCyE5Qubfr/x/CVPxlUOqitoGDmYduU5OClyv7US4EB1wgEEoLIELZnC4BvHMfjGMaiJFJgsFb6/Ha67amDjYtePuxrZ708GVIxHitu51kYy3fTMQFa5Vt3a5SXXsQ0zmzw8jeptKnFWYbvQqZYCV5NwMY6td1xzv8/tGtc4wAmBK9AH3/B+MDVuqytPCMB1sxNsJSvyKKMghCDQM4zeVw8idGoCVGIgRXWgmONzcaDRxQJfuMr/oKZyRGIqYomqVwNmCjpzfXap8/Ri2I6Z68RbKnSvsx7bhT48HsHIeAQDQwHoutZ/+bqu/5NUNAAEnEqQ4wE0nnoTjugo+Fz6K02DwDCMObV8Ljg6IWAyQzISR/+eoxh+pwe6kk6ZFT/I3D5rSsdfvKvpG5vOazyxfKEba7u8WNvlKX+80tmAqXnyPpgNIKyurCtRObd6O6Z7D0LoZWC70IORGIKRGALhGAKhGD523UX/vGKB/7CarkXnlIHoCnwjB+CdOGE2drQhKl8pO05ZOmV2dBB9rx1CfCyYtuKl3JGnV7aU+ZQ6x2K/88R153j/8eBgHL0jSfSOmkcVyWXNs/u/V4rM+1j7iQtKwPZQ+CXnL5/6Bwd8Xmf0jtHoF+994r9+3iSlLSCh4OBwBfrAkmHE2tdCd3hBjPJ7oNkdcSeUgFCK4HgYgUN9SARjoBIFlcqML8zFmqsGPnNZy7bzlnojobhe7fVCFpmWdEfGf61dXTZjZj94u8ieq8+HbaLOKGwX+oGjJ6f9m1KCJR0Nz1y0auFvj/SOXedyWrdMu/KJIBpPvYl422qkGjrMppGlZsQJwDXD3MShXCFmPrPEoCsqJo4PYLJvBNwwSnPT7UTjWNvpemGRi/zk1cNhGDVIIcIUcWZfc0tk3TBFaO2mshlncAPFsxnbhb6wo3navzkAj1PG5z723i99/hu/uNrg3EkzTJLlyjeMHICUDCPuXwEOClJiDzjDMGBwbi70KFMLlhWPDAcwergPqWgSjFEQNneR87J2oAEclKhb3+f/4rpOJxJKVTZvyEWhXUp2YGruXimhn9EbHM4HbJ+jN3hc0w6fxwUmMVy6rmvfuy9c9m/xpDLzIkLNqHywD76h0gtsCGDuj16utSOmFVdTKvre7MbgvqNQYikwya5gofWUJaIauLLL9Z31S71/IDKD2yPD7Z5+VIHs3Hm2kDP/XamcemagL4AztLd6LbHdoh/rHc75c8YIbvmT8796oGdkczCa6JRmFJZMj8rH21Yh1dAJwvUiBGzuglLOPJ0wCnAgNDCKsaODUBMpM9hW8kiFn89sAl/C8xmAz8MmPnxew8P7+6LQK7OhYjFkz82zrWkAppW3xGj3nurZKbW6WYhiJ7YL3e3O37Bw2aKGUxvXLfnyL145+JjP68j5veeUnS6wkVIRxFuXgxNmCr4AVrFz0QviCQGTGJLhGEYP9SM6GjSr3WyY4+e7X0koOv76vR0P3by+ZSBc2a2XZiNf7hxZP7eEvgX2Cb0FM4tkqr0v+lmB7UI/3j+a93cEBO++cMl39/cM3zk4FlrvyCMqK93mCvRBSkUQbVtTOCpPAAOAonO4MLvMKaMwdAPjxwYx0X0KuqJVTuCZD1ksOkdHk3zg3UvdT4xGdai1656TmTu3LHcurOi7lfraVODcYu+7CdP3aQdMkQu3vQxsF/rVl64p+Hu3S05KDsc9f/uPzz6XT+gWnEqQ4gE0nvojYm1roBSIyhPOIRkGeAE9EUJAJIbEZBijhwYQmwiBSqwKIkdpFt0A7rqy9V6fTBIjgVTlnml2sq15viCY9RKwzt+M4oS+CcXPZ57AGbrB4XzAdqGPThReUcUYQVe771drlrb//MTgxC0uR+FHMF15Fb6RA0imwoi3rAAneaLyBb4yZspMw8Sxk5jsGU6nzKrbHKMoFANXrfA++8kr/D9Xarj0Nk0pc+MdmC50u3Lq1nZQIm03B2z/pg+PB2c9xylL+MsPbrj/ke//7jqNG146i7UzXXmrwCaCWMca6PJMV54bxowZupUyi44GMXqoH6lwHESiU2vFqwEBUMz9OCDLNPXxC3z39o+nkKptw8vM3HkAs+89Zln8FtiTU9+OmTupCsrEdqFfdmFx2ZUGj2P/m8eGHvvxzj/e3ex1FWG5rAKbABoH30SsbTUUX6cpdm6uRTeyNj9jEoOaVDB29CRCA2PmHmi1KnwphpSBm9/V9Nh/u7DprVDCgISaPmum296C0qsTihH6LlR5D7J6xXahHz5xqrgbSxSXr1v8tef3Hrs1nlCWsHzruLPIrJVPpMJItK5IW/ypPDqhZl4+ODiO0cMDUOMps6VTuR+qGhgcTV42tLHT8dXdxyKocZv6XOvOS8XKqYtS1XmA7UJvbWko+tyuBa0Tn/iz2EPf+NFLTzS4HcXfJF0r705H5WNta6AyNzjnYA4J8UAUQ0dOIjE0AUJp7cpXpx549so4jeNTVzR/5bJl3vFwquabUdi1QszunLqgTOxv99zkLfpcyihuvPr8f//p7/Z/anAsdIWzJEFaBTaTaDz1R0RbVkE3VmKibwyjB3qgp9TqRNPtQOPoapL3fOiipm97XRI8tSuOsci05ttRWrT7EZi93gB7c+qCOWC70A8V6bpbOGWm3nrtxfd+86mXf8M5p9m91maDUwlEV+GbOIz4CycRdy+G4esEcboBQy2/LNY2OECZuUw1/6PwWy/w3dc/klCUGu0Km0Fm7hyYPQiXzQ5MCd2OnLrABmwXekODu6TzCSG4/IJlu9Z0HfqPA70jt7udZdRvUwlGKgqMHYeX7ofRuBCKfxW0lqUwJJeZe6/lVuKFmk4oBj6w1veTLVe1/TqhGrV/L0235vtQeoGKdU3mQhch9Bpju9CP9IyUfA2jBB+4cs2DPcPBm3RDb5wt3ZYN5wb0RACQZHAQkPApuEKD4K4mqG2roLauhO5uAjif05r3sjjdzC5HaS4HHIzEblnXcE9S40jW3poDudedl0r2irZKrVMXFIntQr/qklVlXMXR4HGemIymvvlvz+y+3+fJXy8/A0JhxCYAXZnan5hKpqSUCBwn90IefgdG8xKo7Wug+haYtfOGBpS4FLZsrEL87PeXYuAj65sePbfNcbRnJDEfsgKZuXOgfEuc2ZBCrFOfB9gu9HA0UdZ1iaSKjecu/vpPGz23JVLqqpmr23JACLiagJEK596LnTBwxgBDBxs/BjbRA9nXAa1tNdTmJTAcHtOtNyrr1nNKZ65e0zk6GuXeu6/p2O5vkKDOD2s+V7fdohszV7QJodcQ24U+HoiWeSVHc6M7escHL33g0R2vPFmU0AHTZedGbqFbEALOzPQdjQzDGR6C7GqE3roCin8lDLffNLiGhqrt62Rw3HpBwwOqogd6R6s8nchNdu68XLc983pL6CKnXmNsF/r685aWfS0hBGtXLPzRi/tOfHp/99CfegoF5giFkQyBq4nCIs8m7dYTJQr51JuQRg5Cb1oMrX0tVN9CcOaovFuvGrhogevFO9/T9kNFB1zSvLDm2blzO4RurWgDRE69phB2569tHfDpj3XO4WoOhyxh99t9Vzz6s90vSYw4cqfbCDg3oIVOpqPpc5ndchBdAwiF7vVDa1sNrWUZdEcDwPX0arm5DM/BHW4Yze1TG0Ea3PibS5uvvmKF95W5ptM+8Z09c3s+QV1gu0VvbCy+YCYfN77/4t1HBgNPPvvygU81ehwznWlCoMcmAUMrzZrnhIAz03OgsXE4o6NwnHobmn8FVP8q6N5WM5KfrqmfM6qBG9b5nvzo+uZXwil9PqTTBHWA7UJfvnLJnMdwOmR8+sPvu3/XnqM36gZvo5k91AmFoUTB8wXg5oIVrdcSkIfehjx6GHrjIqhtq6E2LgKXnOW59dZOLhyQGZn8zOWt93V1OJFQhcoF1cF2ofec6LdlHK8snbztuvVf+95/7vmax5UxV+cceiKIirZDJTQdvOOggT64An1weFqhWTl5pw/gRvE5eWv6oRq44TzfP0SjSt/z+3M0yRQIKoT9i1oa575NEAfgkBg+fM1Fj/3i/x24PZJIXSgzas6j45OAlrLfmueEAEw2g3eJIBz9r0MefgdayzKobauhe9vMJhizuvUE0DiW+x3HtjQ3yesAAAINSURBVF3T/i2nRKDVdKm5oN6wXegv7Tlq21iyxOLXX7nm/h/99q2fyRKDoaVgJCvgshcDZeBggJaCPHIQ8thRGL4FUNrWQGteDENyA4aeo4klN1euaRy3rG24p9kjhSOKUZOPIKhfbBf6hvPLT69lQwjBxguX/fzkSOSZXXuP3uxFyIyy11IlGW69WWp7EtzdAs1/DhT/Suiu5rRbb/a24wB4CrhqXcOvPvKupp+cDKTACzW2EwgqgO1CX9DWPPtJJSDLDF/69KZPRcNBx+49fR/kIHDM0meuehAADIgFQCKvw3HyLWjNXVDb10L3LQA0AzAMXHm+97mHr22/Y9VCt5ESPrugBtiuGN2w94tsKBzNPnfg9j+75IZOL/+QJNG/Odw/4lMrtEXy3OAgegxG/C3IrnGsW39lJOFs+ocbz2/Z4XNSJFWjlhsxCOoY2wtmBALB/EOEhASCOkAIXSCoA4TQBYI6QAhdIKgDhNAFgjpACF0gqAOE0AWCOkAIXSCoA4TQBYI6QAhdIKgDhNAFgjpACF0gqAOE0AWCOkAIXSCoA4TQBYI6QAhdIKgDhNAFgjpACF0gqAOE0AWCOkAIXSCoA4TQBYI6QAhdIKgDhNAFgjpACF0gqAOE0AWCOkAIXSCoA4TQBYI6QAhdIKgDhNAFgjpACF0gqAOE0AWCOkAIXSCoA4TQBYI64P8DbcPmqTS4N7cAAAAASUVORK5CYII=;" vertex="1" parent="1">
          <mxGeometry x="-723" y="868.6899999999999" width="192" height="115.2" as="geometry" />
        </mxCell>
        <mxCell id="3PC0X6na9no3xxSYQHZZ-31" style="edgeStyle=orthogonalEdgeStyle;rounded=0;orthogonalLoop=1;jettySize=auto;html=1;startArrow=classic;startFill=1;" edge="1" parent="1" source="3PC0X6na9no3xxSYQHZZ-29" target="3PC0X6na9no3xxSYQHZZ-24">
          <mxGeometry relative="1" as="geometry" />
        </mxCell>
        <mxCell id="3PC0X6na9no3xxSYQHZZ-29" value="" style="image;aspect=fixed;perimeter=ellipsePerimeter;html=1;align=center;shadow=0;dashed=0;spacingTop=3;image=img/lib/active_directory/databases.svg;" vertex="1" parent="1">
          <mxGeometry x="-973" y="865.53" width="124" height="121.52" as="geometry" />
        </mxCell>
        <mxCell id="3PC0X6na9no3xxSYQHZZ-30" value="Microsoft Exchange server" style="text;html=1;align=center;verticalAlign=middle;whiteSpace=wrap;rounded=0;" vertex="1" parent="1">
          <mxGeometry x="-963" y="987.05" width="104" height="36" as="geometry" />
        </mxCell>
        <mxCell id="3PC0X6na9no3xxSYQHZZ-33" style="edgeStyle=orthogonalEdgeStyle;rounded=0;orthogonalLoop=1;jettySize=auto;html=1;startArrow=classic;startFill=1;" edge="1" parent="1" source="3PC0X6na9no3xxSYQHZZ-32" target="3PC0X6na9no3xxSYQHZZ-29">
          <mxGeometry relative="1" as="geometry" />
        </mxCell>
        <mxCell id="3PC0X6na9no3xxSYQHZZ-32" value="" style="shape=image;verticalLabelPosition=bottom;labelBackgroundColor=default;verticalAlign=top;aspect=fixed;imageAspect=0;image=data:image/png,iVBORw0KGgoAAAANSUhEUgAAAQoAAAC+CAMAAAD6ObEsAAABAlBMVEX///8AeNQoqOoDZLgUkN9Q2f8deqkAddMdpul3w/ATidUAX7ZomM4AbtHs9vzW5fYRfMAAa74AiN0efq8giLwAc8wAc9MAWrMineVIzvoCRH4CSIUko+gDaL5M0vqD4/8kl9IHRZAmoN4AZLIFT54Jec8DW6cKJ2cDWqUENGEAVpkDUZgEL1qJs+UlmdQdisYHGl6JqdVbkMsAc6amwOBOlt2cwerJ3vS81vEZis0Whch1n9EfcL0AVbHm7/k/jtppn9+Mueh4q+OVma8AAFS5vs48TX7W2uOAiqcACl0aba1spuILN3gSfcgGH0oGKVgWXYcRT3sQdLlStu233vfi8/1qR1j7AAAFS0lEQVR4nO2cYVfiRhSGDaSEXTdBaImswtZgQMWC2hVEFgGt7W5X1Na6//+vNCQhZDKTkADnxEne5+M94Zzc59y5M5NM2NoCAAAAAAAAAAAAAAAAAAAAAAAAAAAAAAAAAAAAAAAAAITl8suHFflyqcR985tkNLzZXpndbCHu+98gw+3sGmxnk1MX/Zt1TGSzu5dxZ7AxLtYqCqMsPsSdwca42F1Txe9xZ7AxoMIBKhygwsFHhd86guImOSraqsBAquRZVD9+ovg17gw2hp+KDIv8p58ooAIqoAIq0qaizCKNKi5qRRZndaiwqF13OolUoQTgq+IgeSoKXSkQb8cstlotUwVjiPCtoiBTyS7DcJE9S6CKUmQTZl0ksCpGcmQTs7I4TWBVFFZT0YIKqIAKqDBhrincKjqpUCHJcmM8mXRLsszclxoqBtdnFQYfaXhWIasP/fmLzkJbYLja2987rBXL9MpUreSrXt7Fml8EKBVqo0de0W9QlbG3v39YLJYZ5VSlxwy3KuQ7+pqJV1cqVMjM9963HhdpUCH32Fe1SRcpUKFOnHC7JEmlO+fIzJiYV1OgQppPHBNZNXKXVLlrBxSiLJKvQrWHh7KYM9SSfR3x4Dv5KmS7KMautFW7LojNfOJVSA9W6JLspFdW1N0tEq9C7luhBtEiJbsseq5SSb4KxRvxC0dRkRn8EWd+EVhkKNkdsudZZ9vFoqyq4vr+6M8YEwyPS8XEinQ9W3P11oq7QtFUnB/d//U1tgTDs1Ch2rsP7yNwRny2M42i4uj8/lt8KYbFpaJtRRre9CZWfOxWEa0qDO5HsaUYFpcKeyD4qSitpeJvrlT4DJD5csOlKNJk+n2m4lx/+18AuNqmnbJf2wy1rshTNfG9ZYiYPpa4UjG2IrfsyfSHazI9OTk5bTazNZoGSVHXde38aCiKXKkQBCtyxV5i9V3h32YqjpuMk63EL8v6DK0lirypkO279dS8XSx3rmIJp2LbNHEoivypmDeFHrkds3cm7lgYFVlTRPO9yKMKoWHH3HPIfJNODJvlKmqmCP1RFPlUMS8ARVg8urGHBzmvLFNhNQl9KIq8qpDmZaF0Zcl6oGdPsJ5eGqyiTDQJPlU4a28j9YeGJJVunfsXhNAqtskmwakKZ4h46aphVVBNglcVPi4mnlWXr4om3SS4VcF6KaSMvS9Nn57ZKnSNbhL8qhDk8RVxgdKmTzM+PT/vN5teFbqmaXST4FiFIMnj3vy+lf6DyjhhYaiYTk8PKRGGCqpJ8KzCnETVcXcyGQsy+3zrP89P0+lUc5VF0xShMZoE3ypMHQHnj6Rc7t+ZCk0nS8JnbPCuIghDRe6sNTUHxELEqd/YSLqKg/rZqdUdLBFaoIhkq+h06gPNYRgwNpKvYnZu88UScfzehHMVKx13d1Rkqi+6dvyys7PUBQcqPOdpQvG4UGHIGOzMeFwigwcVK3wak3OryGQqpgu7MPxk8KDC/4OpgJogVGQy18tlcKFiy+czusLnn1nkcrSKTJ6QwbMKJsrnXAAHnpP/y1oG1ypGkVQsaxlcq1haFfSL4gAZiVbB+Po4oGUkWgVtIqhlcK6COYPY1JkmDOrsUcK1itEvQfiZ8GsZyVURYILdMrhWofiLYP1JwZKWwbcK6gRNFLyrjBSr8LaMVKsgW0a6VRAtI+0qXC2DaxVbm1DhtIzHt3+ENYD/NuPCahmDuLNZi0J1My5mLWPoc3CDF17zVea/akanwv0/WCuv7zbC64+4MwEAAAAAAAAAAAAAAAAAAAAAAAAAAAAAAAAAAAAAAADg7fA/vaIMKfuo6m0AAAAASUVORK5CYII=;clipPath=inset(21.05% 27.82% 22.11% 27.44%);" vertex="1" parent="1">
          <mxGeometry x="-1177" y="890.68" width="78.46" height="71.21" as="geometry" />
        </mxCell>
        <mxCell id="3PC0X6na9no3xxSYQHZZ-34" value="Rooms Outlook calender" style="text;html=1;align=center;verticalAlign=middle;whiteSpace=wrap;rounded=0;" vertex="1" parent="1">
          <mxGeometry x="-1189.77" y="966" width="104" height="36" as="geometry" />
        </mxCell>
      </root>
    </mxGraphModel>
  </diagram>
</mxfile>
